<?xml version="1.0" encoding="UTF-8"?>
<svg width="32" height="32" viewBox="0 0 32 32" fill="none" xmlns="http://www.w3.org/2000/svg">
  <!-- Coffee cup -->
  <path d="M24 8H8C6.89543 8 6 8.89543 6 10V20C6 21.1046 6.89543 22 8 22H24C25.1046 22 26 21.1046 26 20V10C26 8.89543 25.1046 8 24 8Z" fill="#4A2C2A"/>
  <!-- Handle -->
  <path d="M28 14H26V16H28C29.1046 16 30 15.1046 30 14C30 12.8954 29.1046 12 28 12V14Z" fill="#4A2C2A"/>
  <!-- Steam -->
  <path d="M12 4C12 4 11 6 12 7C13 8 15 7 15 6C15 5 14 4 12 4Z" fill="#8B4513"/>
  <path d="M18 4C18 4 17 6 18 7C19 8 21 7 21 6C21 5 20 4 18 4Z" fill="#8B4513"/>
  <path d="M24 4C24 4 23 6 24 7C25 8 27 7 27 6C27 5 26 4 24 4Z" fill="#8B4513"/>
</svg> 